<svg width="28" height="28" viewBox="0 0 28 28" fill="none" xmlns="http://www.w3.org/2000/svg">
<path fill-rule="evenodd" clip-rule="evenodd" d="M10.5034 18.9858V8.48239L19.2562 13.7341L10.5034 18.9858ZM27.72 7.76335C27.72 7.76335 27.4467 5.70479 26.6067 4.79759C25.5427 3.60927 24.3488 3.60255 23.8022 3.53423C19.8834 3.23071 14.0056 3.23071 14.0056 3.23071H13.9933C13.9933 3.23071 8.11552 3.23071 4.19776 3.53423C3.6512 3.60255 2.4584 3.60927 1.39216 4.79759C0.5544 5.70479 0.28 7.76335 0.28 7.76335C0.28 7.76335 0 10.1803 0 12.5973V14.8619C0 17.2811 0.28 19.697 0.28 19.697C0.28 19.697 0.55328 21.7555 1.39216 22.6605C2.4584 23.8488 3.85616 23.813 4.48 23.9373C6.72 24.1658 14 24.2374 14 24.2374C14 24.2374 19.8834 24.2274 23.8022 23.9272C24.3488 23.8566 25.5427 23.8499 26.6067 22.6605C27.4456 21.7566 27.72 19.697 27.72 19.697C27.72 19.697 28 17.2811 28 14.863V12.5973C28 10.1803 27.72 7.76335 27.72 7.76335Z" fill="white"/>
</svg>
